================ CELEBRATE ROCK MUSIC WITH HAUNTING SUMMER ==================


============================= PAPA ROACH - BROKEN HOME =======================

Papa Roach is an American rock band from Vacaville, California. Their first major-label release was the triple-platinum album Infest (2000)

Origin 	Vacaville, California, United States
Genres 	Hard rock, heavy metal, rap rock, post-grunge, alternative metal
Years active 	1993 (1993)–present

Website 	paparoach.com

===============================================================================

Format                           : MPEG-PS
File size                        : 37.8 MiB
Duration                         : 3mn 47s
Overall bit rate                 : 1 396 Kbps

Video
ID                               : 224 (0xE0)
Format                           : MPEG Video
Format version                   : Version 1
Format settings, BVOP            : Yes
Format settings, Matrix          : Default
Duration                         : 3mn 47s
Bit rate mode                    : Constant
Bit rate                         : 1 150 Kbps
Width                            : 352 pixels
Height                           : 240 pixels
Display aspect ratio             : 4:3
Frame rate                       : 29.970 fps
Standard                         : NTSC
Color space                      : YUV
Bit depth                        : 8 bits
Scan type                        : Progressive
Bits/(Pixel*Frame)               : 0.454
Stream size                      : 31.0 MiB (82%)

Audio
ID                               : 192 (0xC0)
Format                           : MPEG Audio
Format version                   : Version 1
Format profile                   : Layer 2
Duration                         : 3mn 47s
Bit rate mode                    : Constant
Bit rate                         : 224 Kbps
Channel(s)                       : 2 channels
Sampling rate                    : 44.1 KHz
Stream size                      : 6.07 MiB (16%)

=================================================================================

                      http://bayimg.com/jAHPhAADN
==============================================================================


===========================================================================
  
I URGE TO ALL D/L PLEASE HIT ON QUALITY +/- AND LEAVE COMMENTS IF POSSIBLE 

=============================================================================

========================== HAUNTING SUMMER ==================================
				
